# AST/ASF file generated using VICON BodyLanguage
# -----------------------------------------------
:version 1.10
:name VICON
:units
  mass 1.0
  length 0.45
  angle deg
:documentation
   .ast/.asf automatically generated from VICON data using
   VICON BodyBuilder and BodyLanguage model FoxedUp or BRILLIANT.MOD
:root
   order TX TY TZ RX RY RZ
   axis XYZ
   position 0 0 0  
   orientation 0 0 0 
:bonedata
  begin
     id 1 
     name lhipjoint
     direction 0.621036 -0.695554 0.361275 
     length 2.46325 
     axis 0 0 0  XYZ
  end
  begin
     id 2 
     name lfemur
     direction 0.34202 -0.939693 0  
     length 6.54784  
     axis 0 0 20  XYZ
    dof rx ry rz
    limits (-160.0 20.0)
           (-70.0 70.0)
           (-60.0 70.0)
  end
  begin
     id 3 
     name ltibia
     direction 0.34202 -0.939693 0   
     length 7.84737   
     axis 0 0 20   XYZ
    dof rx
    limits (-10.0 170.0)
  end
  begin
     id 4 
     name lfoot
     direction 0.0790693 -0.217241 0.97291   
     length 2.59747   
     axis -90 7.62852e-016 20   XYZ
    dof rx rz
    limits (-45.0 90.0)
           (-70.0 20.0)
  end
  begin
     id 5 
     name ltoes
     direction 1.53572e-011 -4.21898e-011 1   
     length 1.29919   
     axis -90 7.62852e-016 20   XYZ
    dof rx
    limits (-90.0 20.0)
  end
  begin
     id 6 
     name rhipjoint
     direction -0.602353 -0.708375 0.367935   
     length 2.41867  
     axis 0 0 0  XYZ 
  end
  begin
     id 7 
     name rfemur
     direction -0.34202 -0.939693 0   
     length 6.92065   
     axis 0 0 -20   XYZ
    dof rx ry rz
    limits (-160.0 20.0)
           (-70.0 70.0)
           (-70.0 60.0)
  end
  begin
     id 8 
     name rtibia
     direction -0.34202 -0.939693 0   
     length 7.88883   
     axis 0 0 -20   XYZ
    dof rx
    limits (-10.0 170.0)
 end
 begin
     id 9 
     name rfoot
     direction -0.0768692 -0.211196 0.974416   
     length 2.43714  
     axis -90 -7.62852e-016 -20   XYZ
    dof rx rz
    limits (-45.0 90.0)
           (-20.0 70.0)
  end
  begin
     id 10 
     name rtoes
     direction -1.53575e-011 -4.21933e-011 1   
     length 1.22113   
     axis -90 -7.62852e-016 -20   XYZ
    dof rx
    limits (-90.0 20.0)
  end
  begin
     id 11 
     name lowerback
     direction 0.0197937 0.98943 -0.143655   
     length 2.16931   
     axis 0 0 0   XYZ
    dof rx ry rz
    limits (-20.0 45.0)
           (-30.0 30.0)
           (-30.0 30.0)
  end
  begin
     id 12 
     name upperback
     direction -0.00183968 0.999975 0.00684288   
     length 2.17221   
     axis 0 0 0   XYZ
    dof rx ry rz
    limits (-20.0 45.0)
           (-30.0 30.0)
           (-30.0 30.0)
  end
  begin
     id 13 
     name thorax
     direction -0.00950244 0.997208 0.0740685   
     length 2.22549   
     axis 0 0 0   XYZ
    dof rx ry rz
    limits (-20.0 45.0)
           (-30.0 30.0)
           (-30.0 30.0)
  end
  begin
     id 14 
     name lowerneck
     direction 0.0218238 0.996215 0.0841425   
     length 1.77269   
     axis 0 0 0   XYZ
    dof rx ry rz
    limits (-20.0 45.0)
           (-30.0 30.0)
           (-30.0 30.0)
  end
  begin
     id 15 
     name upperneck
     direction -0.00430652 0.994214 -0.107332   
     length 1.76534   
     axis 0 0 0   XYZ
    dof rx ry rz
    limits (-20.0 45.0)
           (-30.0 30.0)
           (-30.0 30.0)
  end
  begin
     id 16
     name head
     direction -0.00328946 0.998959 -0.0454998  
     length 1.82634  
     axis 0 0 0   XYZ
    dof rx ry rz
    limits (-20.0 45.0)
           (-30.0 30.0)
           (-30.0 30.0)
  end
  begin
     id 17 
     name lclavicle
     direction 0.970962 0.239191 0.00450212  
     length 3.84872  
     axis 0 0 0   XYZ
    dof ry rz
    limits (-20.0 10.0)
           (0.0 20.0)
  end
  begin
     id 18 
     name lhumerus
     direction 1 -4.48966e-011 5.74696e-028   
     length 5.22771   
     axis 180 -30 -90   XYZ
    dof rx ry rz
    limits (-60.0 90.0)
           (-90.0 90.0)
           (-90.0 90.0)
  end
  begin
     id 19
     name lradius
     direction 1 -4.4896e-011 4.25109e-027   
     length 3.45251   
     axis 180 -30 -90   XYZ
    dof rx
    limits (-10.0 170.0)
  end
  begin
     id 20
     name lwrist
     direction 1 -4.48971e-011 1.15382e-027   
     length 1.72626   
     axis -5.52449e-016 90 90   XYZ
    dof ry
    limits (-180.0 0.0)
 end
  begin
     id 21 
     name lhand
     direction 1 -4.49034e-011 2.30765e-027   
     length 0.552119   
     axis -1.47248e-015 90 90   XYZ
    dof rx rz
    limits (-90.0 90.0)
           (-45.0 45.0)
  end
  begin
     id 22 
     name lfingers
     direction 1 -4.48951e-011 4.61529e-027   
     length 0.445133   
     axis -2.94495e-015 90 90   XYZ
    dof rx
    limits (0.0 90.0)
  end
  begin
     id 23
     name lthumb
     direction 0.707107 -6.34991e-011 0.707107   
     length 0.639124   
     axis -90 45 2.85299e-015   XYZ
    dof rx rz
    limits (-45.0 45.0)
           (-45.0 45.0)
  end
  begin
     id 24 
     name rclavicle
     direction -0.97424 0.222511 -0.0366699   
     length 3.73439  
     axis 0 0 0   XYZ 
    dof ry rz
    limits (-10.0 20.0)
           (-20.0 0.0)
  end
  begin
     id 25 
     name rhumerus
     direction -1 -4.48956e-011 -4.97258e-028  
     length 5.2398   
     axis 180 30 90   XYZ
    dof rx ry rz
    limits (-90.0 60.0)
           (-90.0 90.0)
           (-90.0 90.0)
  end
  begin
     id 26 
     name rradius
     direction -1 -4.4897e-011 -1.72611e-027   
     length 3.48042   
     axis 180 30 90   XYZ
    dof rx
    limits (-10.0 170.0)
  end
  begin
     id 27 
     name rwrist
     direction -1 -4.48976e-011 1.15382e-027   
     length 1.74021   
     axis -5.52449e-016 -90 -90   XYZ
    dof ry
    limits (-180.0 0.0)
  end
  begin
     id 28
     name rhand
     direction -1 -4.48963e-011 2.30765e-027   
     length 0.618713   
     axis -1.47248e-015 -90 -90   XYZ
    dof rx rz
    limits (-90.0 90.0)
           (-45.0 45.0)
  end
  begin
     id 29
     name rfingers
     direction -1 -4.4888e-011 4.61529e-027   
     length 0.498823   
     axis -2.94495e-015 -90 -90   XYZ
    dof rx
    limits (0.0 90.0)
  end
  begin
     id 30
     name rthumb
     direction -0.707107 -6.34968e-011 0.707107   
     length 0.716213   
     axis -90 -45 -2.85299e-015   XYZ
    dof rx rz
    limits (-45.0 45.0)
           (-45.0 45.0)
  end
:hierarchy
  begin
    root lhipjoint rhipjoint lowerback
    lhipjoint lfemur
    lfemur ltibia
    ltibia lfoot
    lfoot ltoes
    rhipjoint rfemur
    rfemur rtibia
    rtibia rfoot
    rfoot rtoes
    lowerback upperback
    upperback thorax
    thorax lowerneck lclavicle rclavicle
    lowerneck upperneck
    upperneck head
    lclavicle lhumerus
    lhumerus lradius
    lradius lwrist
    lwrist lhand lthumb
    lhand lfingers
    rclavicle rhumerus
    rhumerus rradius
    rradius rwrist
    rwrist rhand rthumb
    rhand rfingers
  end

#!OML:ASF G:\JayActor3\Patient Classification 1\Patient 1\Session 5\male.ASF
:FULLY-SPECIFIED
:DEGREES
80
root 7.37909 14.5152 -6.46894 124.081 -88.0389 -126.739
lowerback 18.2915 -0.715232 2.53095
upperback 1.88974 -0.560803 -0.0222687
thorax -8.23945 -0.408609 -1.31656
lowerneck -15.3149 0.520823 2.50644
upperneck 14.7318 0.120003 -0.158358
head 7.03236 0.168678 -0.45072
rclavicle -9.85227e-015 -1.98785e-015
rhumerus 21.4348 14.8275 -70.672
rradius 71.2219
rwrist 16.6704
rhand -5.44777 -4.33931
rfingers 7.12502
rthumb 20.3631 -33.2917
lclavicle -9.85227e-015 -1.98785e-015
lhumerus 13.7727 -14.1274 73.8338
lradius 79.0761
lwrist -7.604
lhand 1.06242 20.2652
lfingers 7.12502
lthumb 26.6076 48.4157
rfemur -35.9628 -18.7085 17.1953
rtibia 76.4434
rfoot -33.0907 -10.8762
rtoes -12.6863
lfemur -35.3111 18.3144 -12.5899
ltibia 72.7195
lfoot -29.6131 15.2062
ltoes -10.8117
81
root 7.37552 14.5129 -6.46831 124.688 -88.0528 -127.35
lowerback 18.2887 -0.712511 2.53037
upperback 1.89274 -0.558283 -0.0307062
thorax -8.23461 -0.407481 -1.326
lowerneck -15.2755 0.519565 2.49881
upperneck 14.753 0.126299 -0.190774
head 7.0325 0.168247 -0.459441
rclavicle -2.50966e-015 -2.28602e-015
rhumerus 21.4187 14.8319 -70.7187
rradius 71.1869
rwrist 16.6757
rhand -5.44048 -4.32137
rfingers 7.12502
rthumb 20.3701 -33.273
lclavicle -2.50966e-015 -2.28602e-015
lhumerus 13.782 -14.1442 73.8287
lradius 79.073
lwrist -7.63793
lhand 1.03205 20.2356
lfingers 7.12502
lthumb 26.5785 48.3905
rfemur -35.9704 -18.7096 17.1605
rtibia 76.4863
rfoot -33.1002 -10.8839
rtoes -12.7156
lfemur -35.3061 18.3919 -12.6053
ltibia 72.7514
lfoot -29.6132 15.1653
ltoes -10.9078
82
root 7.37185 14.5107 -6.46766 125.167 -88.0654 -127.831
lowerback 18.2841 -0.711257 2.53258
upperback 1.89428 -0.556811 -0.0358681
thorax -8.23041 -0.406886 -1.33324
lowerneck -15.2355 0.521608 2.4959
upperneck 14.7713 0.13695 -0.22809
head 7.03167 0.16972 -0.470065
rclavicle -1.70209e-015 4.77083e-015
rhumerus 21.4022 14.8415 -70.7597
rradius 71.1541
rwrist 16.6966
rhand -5.42587 -4.30986
rfingers 7.12502
rthumb 20.3842 -33.26
lclavicle -1.70209e-015 4.77083e-015
lhumerus 13.7883 -14.1627 73.8248
lradius 79.0744
lwrist -7.66049
lhand 1.0289 20.2174
lfingers 7.12502
lthumb 26.5755 48.3728
rfemur -35.9753 -18.7083 17.1305
rtibia 76.5247
rfoot -33.1109 -10.8975
rtoes -12.7456
lfemur -35.301 18.4571 -12.6184
ltibia 72.7809
lfoot -29.625 15.1214
ltoes -10.9641
83
root 7.3682 14.5085 -6.46717 125.412 -88.072 -128.079
lowerback 18.2804 -0.711642 2.5415
upperback 1.89452 -0.555642 -0.0360253
thorax -8.22811 -0.406596 -1.3388
lowerneck -15.1909 0.527101 2.49984
upperneck 14.7804 0.152151 -0.271757
head 7.02713 0.173157 -0.483383
rclavicle -7.45443e-015 8.05078e-015
rhumerus 21.3884 14.8562 -70.7924
rradius 71.123
rwrist 16.722
rhand -5.40074 -4.30093
rfingers 7.12502
rthumb 20.4083 -33.2485
lclavicle -7.45443e-015 8.05078e-015
lhumerus 13.793 -14.1837 73.8217
lradius 79.0807
lwrist -7.65882
lhand 1.05724 20.2142
lfingers 7.12502
lthumb 26.6026 48.3655
rfemur -35.9763 -18.7022 17.1127
rtibia 76.5584
rfoot -33.1237 -10.9195
rtoes -12.7725
lfemur -35.2968 18.5103 -12.621
ltibia 72.8102
lfoot -29.6392 15.0832
ltoes -11.0179
84
root 7.36453 14.5064 -6.46692 125.454 -88.073 -128.124
lowerback 18.2771 -0.712732 2.55469
upperback 1.89446 -0.554058 -0.0307306
thorax -8.22639 -0.40617 -1.34101
lowerneck -15.1455 0.534845 2.50704
upperneck 14.7816 0.17037 -0.31838
head 7.01992 0.177953 -0.497866
rclavicle -1.68718e-014 3.57812e-015
rhumerus 21.377 14.8754 -70.8157
rradius 71.0966
rwrist 16.7443
rhand -5.3637 -4.30229
rfingers 7.12502
rthumb 20.4439 -33.246
lclavicle -1.68718e-014 3.57812e-015
lhumerus 13.7978 -14.205 73.8221
lradius 79.0938
lwrist -7.64125
lhand 1.11439 20.2269
lfingers 7.12502
lthumb 26.6573 48.3699
rfemur -35.973 -18.6896 17.1061
rtibia 76.5876
rfoot -33.1415 -10.9435
rtoes -12.786
lfemur -35.2927 18.5529 -12.6133
ltibia 72.8394
lfoot -29.6555 15.0481
ltoes -11.0594
85
root 7.36093 14.5044 -6.46694 125.343 -88.0696 -128.015
lowerback 18.275 -0.714546 2.56955
upperback 1.89341 -0.552651 -0.0210947
thorax -8.22635 -0.40583 -1.33942
lowerneck -15.0994 0.544869 2.51634
upperneck 14.7768 0.191237 -0.364447
head 7.01073 0.184186 -0.512223
rclavicle -7.28049e-015 7.25564e-015
rhumerus 21.3688 14.9004 -70.829
rradius 71.0754
rwrist 16.752
rhand -5.31862 -4.30921
rfingers 7.12502
rthumb 20.4873 -33.2483
lclavicle -7.28049e-015 7.25564e-015
lhumerus 13.8019 -14.2258 73.8248
lradius 79.1127
lwrist -7.6148
lhand 1.19226 20.2532
lfingers 7.12502
lthumb 26.7318 48.3849
rfemur -35.967 -18.6694 17.1089
rtibia 76.6133
rfoot -33.1615 -10.9695
rtoes -12.7866
lfemur -35.2898 18.5872 -12.5972
ltibia 72.8691
lfoot -29.6731 15.0147
ltoes -11.0946
